# xmcd
#
# Track frame offsets: 
#        150
#        21177
#        43854
#        61321
#        78666
#        92020
#        111605
#        132885
#        153793
#        175326
#        192260
#        218874
#
# Disc length: 3271 seconds
#
# Revision: 0
# Processed by: cddbd v1.5.2PL0 Copyright (c) Steve Scherf et al.
# Submitted via: ExactAudioCopy v0.99pb4
#
DISCID=a60cc50c
DTITLE=Billy Paul - First Class (with bonus tracks)
DYEAR=2004
DGENRE=Soul
TTITLE0=False Faces
TTITLE1=Bring The Family Back
TTITLE2=Game of Life
TTITLE3=It's Critical
TTITLE4=Thank You (For this Blessing)
TTITLE5=What A Way To Love
TTITLE6=So Glad to See You Again
TTITLE7=Treasure of My Life
TTITLE8=I Gotta Put This Life Down
TTITLE9=You're My Sweetness
TTITLE10=How good is your game [12" mix]
TTITLE11=Bring The Family Back {12" mix]
EXTD=
EXTT0=
EXTT1=
EXTT2=
EXTT3=
EXTT4=
EXTT5=
EXTT6=
EXTT7=
EXTT8=
EXTT9=
EXTT10=
EXTT11=
PLAYORDER=
